DBRep_DrawableShape

CASCADE Topology V1, (c) Matra-Datavision
Locations 0
Curve2ds 12
1 6.2831853071795862 -0 0 1 
1 0 -0 0 1 
1 0 0 1 0 
2 0 0 1 0 -0 1 0.003918604
1 0 0.16642512104415011 1 0 
2 0 0 1 0 -0 1 0.003918604
7 0 0  7 62 11  2.8434131553447091 0.16066219764982656  2.8473775242167396 0.16073880059604037  2.850719816404133 0.16081630896949803  2.8534184009904022 0.16089433904192327  2.855456983065753 0.16097252401181386  2.8568246037270826 0.16105051400444162  2.8575156400779784 0.16112797607185234  2.8575793383807198 0.16147251488799766  2.8493510479604094 0.16172745300278815  2.8331319095306515 0.16195831200682881  2.8096403222095079 0.16215742706684064  2.7800801868570701 0.1623200345191666  2.7460926430355919 0.16244212685053258  2.6967830185667268 0.16255348640343945  2.6831602926840676 0.1625781057384818  2.6692602810818609 0.16259734642938195  2.6551595486190078 0.16261118557985293  2.6409345341072323 0.16261960958380645  2.626661550311078 0.16262261412535287  2.6018642014831506 0.16261841888032255  2.5913271587391655 0.16261366172485112  2.5808366530378235 0.16260593272218116  2.5704237240936814 0.16259523468776077  2.5601194540139862 0.16258157324269187  2.5499549672986768 0.16256495681373065  2.5152178869398178 0.16249696651192563  2.4914210170126778 0.16243026761932966  2.4691701104989758 0.16234554222138683  2.4489774442593428 0.16224331730798061  2.4312810580651449 0.16212444137861026  2.4164575300885907 0.16199012122801149  2.3984813679206218 0.1617609683413907  2.3930922388681819 0.16167594874129471  2.3887237095192928 0.1615872967612329  2.3854182585425714 0.16149547102867742  2.3832044989914856 0.16140099196882846  2.3820971783043556 0.16130444180461384  2.3820971783043552 0.16093663130375627  2.3904970850050669 0.16065885604458863  2.4069935733058907 0.16038521592497487  2.4308444207477402 0.16012992206518331  2.4608138900898173 0.15990933036764662  2.4952314135776885 0.15973889115478279  2.5451844632466925 0.15958197340763372  2.5590492162065579 0.15954698226202305  2.5731893227949998 0.15951977212385157  2.587524852501645 0.15950058429375949  2.6019760041095474 0.15948956617103802  2.6164631056951886 0.15948677125362926  2.6456262746725341 0.15949765003569963  2.6603041163879912 0.15951164683826066  2.6748521894932074 0.1595340963008367  2.689184230505556 0.15956484929580134  2.7032156627414272 0.15960366081287455  2.7168635963162244 0.1596501899591227  2.7519920685360604 0.15979357385079809  2.7727134424139672 0.15990362475391848  2.791723496423443 0.16003193900205637  2.8086114058316012 0.16017547159225853  2.8230348653320303 0.16033071467604623  2.8347119798495077 0.16049406605058042  2.8434131553447091 0.16066219764982656 
 0 8 0.053075548283075653 6 0.23867182240750826 6 0.30700064100300345 6 0.35761891543182395 6 0.48294747161673185 6 0.5514560952548937 6 0.74013158024520886 6 0.81007180250492794 6 0.88134923929778386 6 1 8
7 0 0  7 62 11  0 0.002219122997907504  0.048766603932899846 0.0021552143319824484  0.097590610836338826 0.0020908511527970128  0.14645713133944563 0.002026379096438049  0.19535360736213275 0.001962121458401554  0.24426981211509644 0.0018983791935926733  0.29319785009981658 0.0018354309163256966  0.51324720634432808 0.0015570859390168382  0.68271960875437465 0.0013556292139573537  0.85138279205077039 0.0011779710455981471  1.0199273561018627 0.0010289572204914539  1.1883265135509564 0.00091000500926264921  1.3564376754476504 0.00082194255603803613  1.5821652323428306 0.00074225347832037399  1.6428284718580028 0.00072473042345737911  1.703428960952696 0.00071109008322439856  1.7639827799282786 0.00070130419680422258  1.8245069484565748 0.00069535404320708084  1.8850194255798658 0.00069323044127064207  1.9903723446865864 0.00069619556763466544  2.0352091107709511 0.00069955804340115829  2.0800569163898426 0.00070502355825452251  2.1249229748931784 0.00071259736124067315  2.1698142045549322 0.00072228756915641043  2.2147372285731324 0.0007341051665494205  2.3710201385721201 0.00078262545963568857  2.4830278528551135 0.00083047291596873192  2.5953340750380485 0.00089175453838070712  2.7078236456663469 0.00096659693376129703  2.8205735626639807 0.0010549642134371293  2.9337728552858047 0.0011565170543823456  3.1098872488699394 0.0013327630714124598  3.1722529728897668 0.0013986759831111479  3.2347040562984506 0.0014679810701718075  3.2972126110584017 0.0015403771159702827  3.3597584349253609 0.0016154911126116886  3.422329011448396 0.0016928782609304091  3.6572962420838331 0.0019899869067589422  3.8279659719063028 0.0022189368346988022  3.9977917734899497 0.0024489482302512272  4.167501331507772 0.0026671503021303659  4.337071309154191 0.0028578368461422438  4.5064018435860653 0.0030060768059847138  4.7342229269006557 0.0031429884152835005  4.7957564837936131 0.0031735833258470063  4.8572275381518955 0.0031974107103546418  4.91865305075516 0.0032142286092933718  4.9800509010988785 0.0032238890638446155  5.0414398873943371 0.0032263381158842441  5.1654134933436877 0.0032168032124244711  5.228012855543974 0.0032045357583367321  5.2906429346192292 0.0031848674794159849  5.3533153143266672 0.0031579481424933334  5.4160480407309768 0.0031240232475343637  5.4788656222043182 0.0030834340276391496  5.6465600446431461 0.0029586850357297542  5.7519453098970867 0.0028632314170438438  5.857637311055524 0.0027524368178220302  5.9635263973084918 0.0026292741160923905  6.0696530525403452 0.0024971244156407912  6.1761501667013992 0.0023593926185781176  6.2831853071795862 0.002219122997907504 
 0 8 0.053075548283075653 6 0.23867182240750826 6 0.30700064100300345 6 0.35761891543182395 6 0.48294747161673185 6 0.5514560952548937 6 0.74013158024520886 6 0.81007180250492794 6 0.88134923929778386 6 1 8
1 6.2831853071795862 -0 0 1 
1 0 -0 0 1 
1 0 0.36065377429684581 1 0 
2 0 0 1 0 -0 1 0.00092276800000000003
Curves 6
1 -0.0031283195989353072 1.9976401114865878 2 0.59799626027370234 -0.79271686372997441 0.11832348311632622 
2 0 2 2 0.59799626027370234 -0.79271686372997441 0.11832348311632622 -0.79832501547370105 -0.60222684236831814 0 0.071257577615166143 -0.094460596489743337 -0.99297510207619033 0.003918604
2 0.099521600000000002 1.868072 2.019692 0.59799626027370234 -0.79271686372997441 0.11832348311632622 -0.79832501547370105 -0.60222684236831814 0 0.071257577615166143 -0.094460596489743337 -0.99297510207619033 0.003918604
7 0 0  7 62 11  0.099147701695059376 1.8747873760976057 2.017866988415673  0.099196095257342659 1.8747308027772609 2.0178907973147888  0.099244567566468642 1.8746728204586829 2.0179124206821117  0.099292908575107239 1.8746137341036964 2.0179317201480114  0.099340913767864678 1.874553835214499 2.0179485822662491  0.099388384161283358 1.8744934018336603 2.0179629185139825  0.099435126303841964 1.8744326985441215 2.0179746652917627  0.099641198000351927 1.8741596415762425 2.0180156702466507  0.099788642018847282 1.8739491824956829 2.0180151013050258  0.099916824690493428 1.8737496884067917 2.0179818358651551  0.10002028980592401 1.8735670470362411 2.0179181157452133  0.10009447716650452 1.8734045407365978 2.0178287184779018  0.10013611863325843 1.8732657941464794 2.0177205753480658  0.10015069677160611 1.8731122665400934 2.017559474259464  0.10015044183336198 1.8730743151584897 2.0175145726651209  0.10014601521165431 1.8730398176246621 2.0174684365765678  0.10013745044146605 1.8730088736893238 2.0174213712923783  0.10012480850010966 1.8729815904378933 2.0173736710747119  0.10010817780722701 1.8729580822904921 2.0173256191493132  0.10007248508521512 1.8729239428774243 2.0172418317307552  0.10005517021840124 1.8729115535106204 2.0172061313798642  0.10003577613431756 1.8729013543252306 2.0171704961951966  0.10001435709254745 1.872893398356452 2.0171350310613918  0.099990975102288021 1.8728877402509909 2.017099836205372  0.099965699922350187 1.8728844362670583 2.0170650071963445  0.099871533315150571 1.872881335740862 2.0169455308093527  0.09979303353576284 1.8728939200311063 2.0168628714864751  0.099704494228937748 1.8729223087660607 2.0167844847251004  0.099607577422824306 1.872967285304836 2.0167116727624497  0.099504134351594456 1.8730293166161718 2.0166453791338168  0.099396117139259207 1.8731084651499079 2.0165863554813583  0.099225018391924005 1.8732566875100836 2.0165074352971524  0.099163844237832352 1.8733139899149225 2.0164819703429719  0.099102382471291744 1.8733760402854369 2.0164590695768543  0.099041041426767257 1.8734425861020352 2.0164388535872866  0.098980223323107436 1.8735132899630644 2.016421427474731  0.098920324263544371 1.8735877295848116 2.0164068808516258  0.098700374959542175 1.8738792991714988 2.0163633602320377  0.098550659548490474 1.8741154005382363 2.0163541949483474  0.098419214737752767 1.8743635517033499 2.0163683679504745  0.098312007378845198 1.8746104409350068 2.0164066443534256  0.098234415568408909 1.874839587893788 2.0164696628957555  0.098190509161831072 1.8750343325809988 2.016555816983495  0.098174750418623322 1.8752414040663956 2.0166965750172228  0.098174917835964867 1.8752917247137144 2.0167371313382709  0.098179525570501094 1.875335923424734 2.016779992799532  0.098188550131809119 1.8753736462953869 2.0168249464433061  0.098201933445304618 1.8754046275362037 2.0168717508287668  0.09821958285224193 1.8754286894723116 2.016920136031958  0.098263575945423759 1.8754631216589082 2.01702042087422  0.09829008808469776 1.8754732210736644 2.0170723853588073  0.098320765643246197 1.8754759513331731 2.0171253648678533  0.098355435818428746 1.8754713181026814 2.0171790103467675  0.09839389488925443 1.8754594221672198 2.0172329559180713  0.098435908216381443 1.8754404594315948 2.0172868188814026  0.098556621481027812 1.8753718757498796 2.0174290591986752  0.098641385042418039 1.8753100954196118 2.0175168549639602  0.098734013201549425 1.8752307142440798 2.0176013365783523  0.098832800301904528 1.8751359705785013 2.0176803857404026  0.098935913802168124 1.8750286195470631 2.0177520758484264  0.099041485323208653 1.8749115457711547 2.0178147315707031  0.099147701695059376 1.8747873760976057 2.017866988415673 
 0 8 0.053075548283075653 6 0.23867182240750826 6 0.30700064100300345 6 0.35761891543182395 6 0.48294747161673185 6 0.5514560952548937 6 0.74013158024520886 6 0.81007180250492794 6 0.88134923929778386 6 1 8
1 0.099267819199999996 1.8727450044077889 2.0187265211640222 -0.054128367401840148 0.9203508285672285 -0.38732992680404588 
2 0.079746219199999996 2.2043150640000002 1.878184004 -0.054128367401840148 0.9203508285672285 -0.38732992680404588 0 0.38789859183337044 0.92170205731227939 0.99853398532168713 0.049890227593230967 -0.020996317493413102 0.00092276800000000003
Polygon3D 0
PolygonOnTriangulations 0
Surfaces 5
2 0 2 2 0.59799626027370234 -0.79271686372997441 0.11832348311632622 -0.79832501547370105 -0.60222684236831814 6.9388939039072299e-18 0.071257577615166143 -0.094460596489743337 -0.99297510207619033 0.003918604
1 0 2 2 0.59799626027370234 -0.79271686372997441 0.11832348311632622 -0.79832501547370105 -0.60222684236831814 6.9388939039072299e-18 0.071257577615166143 -0.094460596489743337 -0.99297510207619033 
1 0.099521600000000002 1.868072 2.019692 0.59799626027370234 -0.79271686372997441 0.11832348311632622 -0.79832501547370105 -0.60222684236831814 6.9388939039072299e-18 0.071257577615166143 -0.094460596489743337 -0.99297510207619033 
2 0.099267819199999996 1.872387064 2.0178760040000001 -0.054128367401840148 0.9203508285672285 -0.38732992680404588 0 0.38789859183337039 0.92170205731227928 0.99853398532168725 0.04989022759323098 -0.020996317493413102 0.00092276800000000003
1 0.079746219199999996 2.2043150640000002 1.878184004 -0.054128367401840148 0.9203508285672285 -0.38732992680404588 0 0.38789859183337039 0.92170205731227928 0.99853398532168725 0.04989022759323098 -0.020996317493413102 
Triangulations 0

TShapes 24
Ve
1e-07
0.0963932804010647 1.86571211148659 2.019692
0 0

0101101
*
Ve
1e-07
-0.00312831959893531 1.99764011148659 2
0 0

0101101
*
Ed
 1e-07 1 1 0
1  1 0 0 0.16642512104415
3  1 2CN 1 0 0 0.16642512104415
0

0101000
-24 0 +23 0 *
Ed
 1e-07 1 1 0
1  2 0 0 6.28318530717959
2  3 1 0 0 6.28318530717959
2  4 2 0 0 6.28318530717959
0

0101000
+23 0 -23 0 *
Ed
 1e-07 1 1 0
1  3 0 0 6.28318530717959
2  5 1 0 0 6.28318530717959
2  6 3 0 0 6.28318530717959
0

0101000
+24 0 -24 0 *
Wi

0101100
+22 0 +21 0 -22 0 -20 0 *
Ve
1.0000065260843e-07
0.0991477016950241 1.87478737609821 2.01786698841542
0 0

0101101
*
Ed
 1e-07 1 1 0
1  4 0 0 1
2  7 1 0 0 1
2  8 4 0 0 1
0

0101000
+18 0 -18 0 *
Wi

0101100
-17 0 *
Fa
0  1e-07 1 0

0101000
+19 0 +16 0 *
Wi

0101100
-21 0 *
Fa
0  1e-07 2 0

0111000
-14 0 *
Wi

0101100
+20 0 *
Fa
0  1e-07 3 0

0111000
+12 0 *
Ve
1e-07
0.0797462192 2.20467300440779 1.87903452116402
0 0

0101101
*
Ed
 1e-07 1 1 0
1  5 0 0.00221912299856033 0.360653774296846
3  9 10CN 4 0 0.00221912299856033 0.360653774296846
0

0101000
+18 0 -10 0 *
Ed
 1e-07 1 1 0
1  6 0 0 6.28318530717959
2  11 4 0 0 6.28318530717959
2  12 5 0 0 6.28318530717959
0

0101000
+10 0 -10 0 *
Wi

0101100
+9 0 +17 0 -9 0 -8 0 *
Fa
0  1e-07 4 0

0101000
+7 0 *
Wi

0101100
+8 0 *
Fa
0  1e-07 5 0

0111000
+5 0 *
Sh

0101100
+15 0 -13 0 +11 0 +6 0 +4 0 *
So

0100000
+3 0 *
Co

1100000
+2 0 *

+1 0 