DBRep_DrawableShape

CASCADE Topology V3, (c) Open Cascade
Locations 0
Curve2ds 12
1 0 0 1 0 
1 0 3.5 1 0 
1 0 0 1 0 
1 6.2831853071795862 0 0 1 
1 0 0 0 1 
1 0 4.2426406871192848 1 0 
1 0 0 1 0 
1 6.2831853071795862 0 0 1 
1 0 0 0 1 
1 0 3.5 1 0 
1 6.2831853071795862 0 0 1 
1 0 0 0 1 
Curves 7
2 0 0 0 1 0 0 -0 1 0 0 -0 1 2
2 3.5 0 0 1 0 0 -0 1 0 0 -0 1 2
1 0 2 0 1 0 0 
2 6.5 0 0 1 0 0 -0 1 0 0 -0 1 2
7 0 0  3 5 3  3.5 2 0  5 2 0  5 -1 0  5 2 0  6.5 2 0 
 0 4 2.1213203435596424 1 4.2426406871192848 4
2 10 0 0 1 0 0 -0 1 0 0 -0 1 2
1 6.5 2 0 1 0 0 
Polygon3D 0
PolygonOnTriangulations 0
Surfaces 5
2 0 0 0 1 0 0 -0 1 0 0 -0 1 2
7 0 0 0 1 0 0 
8 0 4.2426406871192848
7 0 0  3 5 3  3.5 2 0  5 2 0  5 -1 0  5 2 0  6.5 2 0 
 0 4 2.1213203435596424 1 4.2426406871192848 4
2 6.5 0 0 1 0 0 -0 1 0 0 -0 1 2
1 10 0 0 1 0 0 -0 1 0 0 -0 1 
1 0 0 0 1 0 0 0 -1 -0 0 -0 1 
Triangulations 0

TShapes 24
Ve
1e-07
0 2 0
0 0

0101101
*
Ed
 1e-07 1 1 0
1  1 0 0 6.28318530717959
2  1 1 0 0 6.28318530717959
0

0101000
+24 0 -24 0 *
Ve
1e-07
3.5 2 0
0 0

0101101
*
Ed
 1e-07 1 1 0
1  2 0 0 6.28318530717959
2  2 1 0 0 6.28318530717959
2  3 2 0 0 6.28318530717959
4 G1 1 0 2 0
0

0101000
+22 0 -22 0 *
Ed
 1e-07 1 1 0
1  3 0 0 3.5
3  4 5CN 1 0 0 3.5
0

0101000
+24 0 -22 0 *
Wi

0101100
+23 0 -21 0 -20 0 +20 0 *
Fa
0  1e-07 1 0

0101000
+19 0 *
Ve
1e-07
6.5 2 0
0 0

0101101
*
Ed
 1e-07 1 1 0
1  4 0 0 6.28318530717959
2  6 2 0 0 6.28318530717959
2  7 3 0 0 6.28318530717959
4 G1 2 0 3 0
0

0101000
+17 0 -17 0 *
Ed
 1e-07 1 1 0
1  5 0 0 4.24264068711928
3  8 9C2 2 0 0 4.24264068711928
0

0101000
+22 0 -17 0 *
Wi

0101100
+21 0 -16 0 -15 0 +15 0 *
Fa
0  1e-07 2 0

0101000
+14 0 *
Ve
1e-07
10 2 0
0 0

0101101
*
Ed
 1e-07 1 1 0
1  6 0 0 6.28318530717959
2  10 3 0 0 6.28318530717959
0

0101000
+12 0 -12 0 *
Ed
 1e-07 1 1 0
1  7 0 0 3.5
3  11 12CN 3 0 0 3.5
0

0101000
+17 0 -12 0 *
Wi

0101100
+16 0 -11 0 -10 0 +10 0 *
Fa
0  1e-07 3 0

0101000
+9 0 *
Wi

0101100
+11 0 *
Fa
0  1e-07 4 0

0101000
+7 0 *
Wi

0101100
-23 0 *
Fa
0  1e-07 5 0

0101000
+5 0 *
Sh

0101100
+18 0 +13 0 +8 0 +6 0 +4 0 *
So

0100000
+3 0 *
Co

1100000
+2 0 *

+1 0 